<!DOCTYPE svg PUBLIC "-//W3C//DTD SVG 20010904//EN" "http://www.w3.org/TR/2001/REC-SVG-20010904/DTD/svg10.dtd">
<svg version="1.0" xmlns="http://www.w3.org/2000/svg" width="300px" height="300px" viewBox="0 0 3000 3000" preserveAspectRatio="xMidYMid meet">
<g id="layer101" fill="#263573" stroke="none">
 <path d="M1250 2966 c-623 -112 -1092 -561 -1226 -1176 -27 -122 -27 -478 0 -600 130 -595 577 -1039 1176 -1167 122 -26 468 -26 590 0 599 128 1046 572 1176 1167 27 122 27 478 0 600 -129 592 -571 1033 -1166 1165 -102 23 -445 29 -550 11z"/>
 </g>
<g id="layer102" fill="#ffffff" stroke="none">
 <path d="M1150 2151 c-179 -58 -294 -189 -321 -366 -36 -229 117 -431 381 -502 88 -24 349 -25 433 -1 l57 16 0 -31 c0 -55 -20 -107 -57 -148 -48 -53 -118 -74 -227 -66 -97 7 -176 33 -282 93 -111 63 -116 61 -187 -81 -31 -64 -57 -121 -57 -128 0 -30 208 -132 340 -168 114 -31 377 -34 480 -5 160 44 283 140 344 268 50 107 56 151 56 438 0 145 4 270 10 285 6 17 20 27 40 31 l30 7 0 173 c0 95 -4 175 -8 178 -4 2 -47 10 -94 16 -155 21 -257 -16 -306 -112 l-24 -47 -50 39 c-63 50 -157 95 -239 115 -89 21 -249 19 -319 -4z m406 -330 c27 -12 70 -43 97 -69 l47 -46 0 -72 0 -71 -38 -11 c-160 -48 -319 -31 -395 43 -76 74 -55 183 45 235 36 18 55 21 119 17 47 -3 95 -13 125 -26z"/>
 </g>

</svg>