<?xml version="1.0" encoding="utf-8"?>
<!DOCTYPE svg PUBLIC "-//W3C//DTD SVG 20010904//EN" "http://www.w3.org/TR/2001/REC-SVG-20010904/DTD/svg10.dtd">
<svg version="1.0" xmlns="http://www.w3.org/2000/svg" width="300px" height="300px" viewBox="0 0 300 300" preserveAspectRatio="xMidYMid meet">
 <g fill="#263573">
  <path d="M0 150 l0 -150 150 0 150 0 0 150 0 150 -150 0 -150 0 0 -150z m143.9 62.5 c8.2 -2 17.6 -6.5 24 -11.5 7.1 -5.6 10.1 -5.5 13.3 0.7 2.9 5.8 8.6 10 14.9 11.1 4.1 0.8 15.2 0 18.7 -1.3 0.9 -0.3 1.2 -4.2 1.2 -14.8 l0 -14.4 -3 -0.7 c-2 -0.4 -3.4 -1.4 -4 -3.1 -0.6 -1.5 -1 -14 -1 -28.5 0 -28.7 -0.6 -33.1 -5.6 -43.8 -6.1 -12.8 -18.5 -22.4 -34.4 -26.8 -9.9 -2.7 -30.8 -2.5 -42 0.4 -9.2 2.5 -30.8 12.4 -31.6 14.6 -0.4 1 7.4 18.4 9.1 20.4 0.1 0.1 4.6 -2 10.1 -4.8 12.2 -6.2 19.2 -8 30.9 -8 12.1 0 18.3 1.9 22.8 6.9 4.2 4.7 5.7 9.3 5.7 17.9 0 6 -0.1 6.2 -2.6 6.2 -1.4 0 -5.4 -0.8 -8.8 -1.7 -8.5 -2.4 -28.8 -2.4 -37.6 0 -20.2 5.4 -34.8 19.1 -37.8 35.5 -2 10.9 2.9 24.4 12.1 33.6 11.7 11.7 28.3 16.1 45.6 12.1z"/>
  <path d="M128.2 186 c-5.7 -3 -8.5 -7.1 -9 -13.6 -0.7 -8 0.4 -12 4.4 -15.8 4.2 -4.1 10.4 -6.4 19.4 -7.2 6.7 -0.6 19.4 0.7 26.2 2.8 l3.8 1.1 0 10.1 0 10.2 -4.7 4.6 c-7.1 7 -12.7 9.1 -25.3 9.5 -9.3 0.4 -11 0.2 -14.8 -1.7z"/>
 </g>
 <g fill="#ffffff">
  <path d="M115 215.1 c-17.9 -5.8 -29.4 -18.9 -32.1 -36.6 -3.6 -22.9 11.7 -43.1 38.1 -50.2 8.8 -2.4 34.9 -2.5 43.3 -0.1 l5.7 1.6 0 -3.1 c0 -5.5 -2 -10.7 -5.7 -14.8 -4.8 -5.3 -11.8 -7.4 -22.7 -6.6 -9.7 0.7 -17.6 3.3 -28.2 9.3 -11.1 6.3 -11.6 6.1 -18.7 -8.1 -3.1 -6.4 -5.7 -12.1 -5.7 -12.8 0 -3 20.8 -13.2 34 -16.8 11.4 -3.1 37.7 -3.4 48 -0.5 16 4.4 28.3 14 34.4 26.8 5 10.7 5.6 15.1 5.6 43.8 0 14.5 0.4 27 1 28.5 0.6 1.7 2 2.7 4 3.1 l3 0.7 0 17.3 c0 9.5 -0.4 17.5 -0.8 17.8 -0.4 0.2 -4.7 1 -9.4 1.6 -15.5 2.1 -25.7 -1.6 -30.6 -11.2 l-2.4 -4.7 -5 3.9 c-6.3 5 -15.7 9.5 -23.9 11.5 -8.9 2.1 -24.9 1.9 -31.9 -0.4z m40.6 -33 c2.7 -1.2 7 -4.3 9.7 -6.9 l4.7 -4.6 0 -7.2 0 -7.1 -3.8 -1.1 c-16 -4.8 -31.9 -3.1 -39.5 4.3 -7.6 7.4 -5.5 18.3 4.5 23.5 3.6 1.8 5.5 2.1 11.9 1.7 4.7 -0.3 9.5 -1.3 12.5 -2.6z"/>
 </g>
</svg>